<?xml version="1.0" encoding="utf-8"?>
<!-- Generator: Adobe Illustrator 16.0.3, SVG Export Plug-In . SVG Version: 6.00 Build 0)  -->
<!DOCTYPE svg PUBLIC "-//W3C//DTD SVG 1.1//EN" "http://www.w3.org/Graphics/SVG/1.1/DTD/svg11.dtd">
<svg version="1.1" id="Layer_1" xmlns="http://www.w3.org/2000/svg" xmlns:xlink="http://www.w3.org/1999/xlink" x="0px" y="0px"
	 width="128px" height="128px" viewBox="0 0 128 128" enable-background="new 0 0 128 128" xml:space="preserve">
<g transform="translate(0.000000,128.000000) scale(0.100000,-0.100000)">
	<path d="M1467.802,315.899c-17.441,72.891-101.777,237.217-141.806,274.629c-17.842,17.148-53.652,57.231-80.029,87.92
		c-31.455,36.929-63.74,63.887-94.941,79.727c-77.471,38.721-137.256,85.01-191.338,146.675
		c-46.553,53.423-49.434,59.883-48.008,91.47c1.328,18.564,13.857,51.245,27.5,72.788c13.613,21.558,23.73,46.807,20.947,56.86
		c-2.764,10.068,1.953,30.757,10.186,47.744c8.76,16.099,12.949,37.632,9.316,47.168c-6.064,20.977-8.623,19.375-39.805-15.562
		c-17.461-19.233-30.693-26.367-54.307-28.223c-16.963-1.201-78.643-13.95-136.475-29.033
		c-98.34-23.96-117.681-32.578-249.6-108.369c-78.657-45.859-168.218-95.024-198.604-110.586
		c-64.385-30.996-70.884-56.343-8.315-30.005c35.366,15.137,175.146,23.818,189.834,11.777c4.336-3.169-28.301-41.416-72.754-83.491
		c-60.708-59.375-110.327-98.838-211.743-164.878C61.748,574.629,0.493,525.537,0,507.52c0.132-5.84,38.657,13.633,85.225,42.89
		c46.582,29.258,168.125,91.436,270.439,139.165c164.653,76.26,192.803,91.597,246.211,138.145
		c36.943,31.465,65.186,50.386,73.477,48.511c6.885-1.582,46.074-39.541,87.324-84.512
		c91.592-100.703,107.832-115.298,218.564-186.27c48.818-30.742,104.365-70.264,123.584-87.695
		c52.041-45.273,244.473-253.847,289.238-311.953c21.143-28.027,42.939-53.34,48.974-55.449
		C1478.916,132.754,1491.972,215.352,1467.802,315.899z"/>
</g>
</svg>
